<svg width="457" height="510" viewBox="0 0 457 510" fill="none" xmlns="http://www.w3.org/2000/svg">
<g clip-path="url(#clip0_2009_2)">
<mask id="mask0_2009_2" style="mask-type:luminance" maskUnits="userSpaceOnUse" x="0" y="0" width="457" height="510">
<path d="M456.33 0.400391H0.330078V509.4H456.33V0.400391Z" fill="white"/>
</mask>
<g mask="url(#mask0_2009_2)">
<path fill-rule="evenodd" clip-rule="evenodd" d="M356.157 472.688L175.157 472.626C165.696 472.621 157.956 464.819 157.96 455.283L158 336.96C158.004 327.427 165.747 319.63 175.21 319.633L356.21 319.697C365.674 319.697 373.413 327.502 373.41 337.038L373.367 455.358C373.365 464.894 365.621 472.691 356.157 472.688Z" fill="#6796B1"/>
<path fill-rule="evenodd" clip-rule="evenodd" d="M175.209 319.633C175.209 319.633 171.032 328.122 181.226 328.124C191.419 328.127 349.863 328.183 349.863 328.183C349.863 328.183 358.298 329.315 358.301 319.829L175.209 319.633Z" fill="#AED7E8"/>
<path fill-rule="evenodd" clip-rule="evenodd" d="M352.975 378.962L347.418 390.777C347.418 390.777 219.046 360.258 187.569 363.98C161.131 367.104 158.243 355.766 157.994 352.05L157.96 455.283C157.956 464.819 165.696 472.621 175.157 472.624L356.157 472.686C365.621 472.691 373.365 464.894 373.367 455.358L373.394 378.671C365.959 385.299 352.975 378.962 352.975 378.962Z" fill="#6E9EBA"/>
<path fill-rule="evenodd" clip-rule="evenodd" d="M356.157 472.689V470.739L175.158 470.674C170.961 470.674 167.153 468.948 164.379 466.152C161.606 463.354 159.894 459.519 159.894 455.291H158.242L159.894 455.326V455.291H158.242L159.894 455.326V455.286L159.935 336.963C159.936 332.733 161.65 328.898 164.424 326.102C167.2 323.307 171.007 321.583 175.204 321.583V320.406L175.2 321.583H175.204V320.406L175.2 321.583L175.207 319.706L175.137 321.58L175.2 321.583L175.207 319.706L175.137 321.58L175.208 321.583L356.21 321.648C360.407 321.648 364.213 323.374 366.989 326.169C369.762 328.968 371.474 332.805 371.474 337.033H373.157L371.474 337.025V337.033H373.157L371.474 337.025L371.479 337.182L373.41 337.039H371.474L371.431 455.358C371.431 459.587 369.717 463.422 366.943 466.22C364.167 469.013 360.362 470.739 356.165 470.739L356.055 470.742L356.157 472.689L356.258 474.636L356.162 472.764L356.17 474.638L356.258 474.636L356.162 472.764L356.17 474.638L356.162 472.934L356.157 474.638H356.17L356.162 472.934L356.157 474.638H356.165C366.701 474.63 375.293 465.977 375.303 455.358L375.343 337.039L375.338 336.893L373.445 337.036L375.343 337.023L375.338 336.893L373.445 337.036L375.343 337.023L373.519 337.036L375.343 337.044V337.023L373.519 337.036L375.343 337.044V337.033C375.335 326.417 366.749 317.759 356.21 317.745L175.21 317.681V319.633L175.282 317.681H175.213H175.202L175.204 319.119V317.681H175.202L175.204 319.119V317.681C164.667 317.691 156.075 326.344 156.065 336.961L156.023 455.283H157.959L156.023 455.243V455.291C156.032 465.907 164.619 474.563 175.156 474.574L356.157 474.638L356.258 474.636L356.157 472.689Z" fill="#22215B"/>
<path fill-rule="evenodd" clip-rule="evenodd" d="M342.455 458.245L188.87 458.191C181.033 458.189 174.627 451.725 174.627 443.832L174.661 348.425C174.664 340.532 181.077 334.073 188.912 334.076L342.498 334.13C350.333 334.133 356.744 340.596 356.741 348.49L356.706 443.894C356.704 451.79 350.29 458.248 342.455 458.245Z" fill="#FFFFFE"/>
<path fill-rule="evenodd" clip-rule="evenodd" d="M188.87 458.191L342.456 458.245C350.29 458.248 356.704 451.79 356.706 443.894L356.725 394.911L347.418 383.115C343.376 377.988 335.645 377.985 331.6 383.11L297.216 426.639L285.672 412.007C281.397 406.588 273.234 406.586 268.957 411.999L256.631 427.6L219.606 380.662C215.363 375.281 207.243 375.305 203.03 380.713L174.637 417.164L174.627 443.832C174.627 451.725 181.033 458.189 188.87 458.191Z" fill="#FFFFFE"/>
<path fill-rule="evenodd" clip-rule="evenodd" d="M256.63 427.6L219.605 380.662C215.362 375.281 207.242 375.305 203.029 380.713L200.526 383.926L253.91 443.996C253.91 443.996 259.865 439.994 256.63 427.6Z" fill="#CBE5E9"/>
<path fill-rule="evenodd" clip-rule="evenodd" d="M295.319 447.97C295.319 447.97 305.122 440.96 297.215 426.638L285.671 412.006C281.396 406.588 273.234 406.585 268.957 411.998L266.882 414.624L295.319 447.97Z" fill="#CBE5E9"/>
<path fill-rule="evenodd" clip-rule="evenodd" d="M347.418 383.115C343.375 377.987 335.644 377.985 331.599 383.11L330.535 384.454L356.714 419.138L356.724 394.911L347.418 383.115Z" fill="#CBE5E9"/>
<path fill-rule="evenodd" clip-rule="evenodd" d="M188.869 458.191L188.868 460.141L342.453 460.194H342.482L342.461 458.43V460.194H342.482L342.461 458.43V460.194C351.37 460.186 358.631 452.872 358.642 443.893L358.658 394.91C358.658 394.469 358.511 394.043 358.237 393.696L348.933 381.9C346.533 378.854 343.002 377.311 339.506 377.316C336.015 377.311 332.487 378.851 330.085 381.895L297.215 423.503L287.186 410.792C284.671 407.598 280.975 405.985 277.311 405.99C273.653 405.985 269.959 407.595 267.442 410.784L256.632 424.467L221.121 379.449C218.628 376.285 214.967 374.685 211.339 374.69C207.685 374.685 203.999 376.306 201.508 379.508L173.114 415.96C172.849 416.299 172.702 416.727 172.702 417.164L172.692 443.828V443.817V443.834C172.7 452.813 179.957 460.13 188.868 460.141L188.869 458.191V456.241C185.486 456.238 182.419 454.849 180.179 452.594C177.943 450.335 176.563 447.246 176.563 443.834H175.376L176.563 443.842V443.834H175.376L176.563 443.842V443.831L176.572 417.837L204.552 381.916C206.288 379.692 208.796 378.595 211.339 378.59C213.863 378.595 216.355 379.678 218.092 381.876L255.116 428.814C255.482 429.277 256.043 429.549 256.631 429.549C257.217 429.549 257.779 429.277 258.144 428.814L270.471 413.213C272.229 410.988 274.754 409.892 277.311 409.89C279.871 409.892 282.397 410.991 284.159 413.218L295.701 427.85C296.066 428.313 296.626 428.585 297.215 428.585C297.802 428.585 298.362 428.313 298.727 427.85L333.114 384.324C334.757 382.245 337.114 381.221 339.506 381.216C341.901 381.221 344.258 382.245 345.903 384.326L354.789 395.592L354.773 443.893C354.77 447.302 353.389 450.394 351.151 452.648C348.911 454.902 345.842 456.295 342.461 456.295H342.431L342.455 458.056V456.295H342.431L342.455 458.056V456.295L188.869 456.241V458.191Z" fill="#3F234F"/>
<path fill-rule="evenodd" clip-rule="evenodd" d="M342.455 458.245V456.295L188.869 456.241C185.486 456.238 182.419 454.849 180.179 452.595C177.943 450.335 176.563 447.246 176.563 443.834H174.755L176.563 443.872V443.834H174.755L176.563 443.872V443.831L176.596 348.427C176.597 345.015 177.979 341.926 180.215 339.669C182.455 337.418 185.523 336.026 188.906 336.026L188.909 334.149L188.839 336.026H188.906L188.909 334.149L188.839 336.026H188.91L342.495 336.079C345.882 336.082 348.949 337.472 351.189 339.726C353.423 341.983 354.805 345.074 354.805 348.487H356.49L354.805 348.479V348.487H356.49L354.805 348.479L354.81 348.635L356.741 348.489H354.805L354.773 443.893C354.77 447.303 353.389 450.394 351.151 452.651C348.911 454.903 345.842 456.295 342.461 456.295V457.984L342.469 456.295H342.461V457.984L342.469 456.295L342.303 456.3L342.455 458.245L342.607 460.187L342.458 458.277L342.471 460.195L342.607 460.187L342.458 458.277L342.471 460.195L342.458 458.355L342.45 460.195H342.471L342.458 458.355L342.45 460.195H342.461C351.37 460.187 358.631 452.872 358.642 443.893L358.674 348.492L358.669 348.344L356.778 348.487L358.674 348.473L358.669 348.344L356.778 348.487L358.674 348.473L356.85 348.487L358.674 348.495V348.473L356.85 348.487L358.674 348.495V348.487C358.669 339.508 351.41 332.191 342.498 332.18L188.912 332.126V334.076L188.984 332.129L188.916 332.126H188.904C179.995 332.134 172.736 339.446 172.727 348.425L172.692 443.829L174.627 443.831L172.692 443.791V443.834C172.7 452.813 179.957 460.13 188.868 460.141L342.453 460.195L342.607 460.187L342.455 458.245Z" fill="#3F234F"/>
<path fill-rule="evenodd" clip-rule="evenodd" d="M319.341 370.713C319.338 379.212 312.495 386.101 304.061 386.099C295.623 386.096 288.786 379.201 288.789 370.702C288.791 362.2 295.634 355.311 304.071 355.313C312.506 355.316 319.343 362.211 319.341 370.713Z" fill="#99D3D1"/>
<path fill-rule="evenodd" clip-rule="evenodd" d="M304.061 381.397C296.421 381.394 290.109 375.733 288.986 368.352C288.869 369.119 288.789 369.9 288.789 370.703C288.786 379.202 295.623 386.097 304.061 386.099C312.495 386.102 319.338 379.213 319.341 370.713C319.341 369.911 319.263 369.13 319.146 368.362C318.015 375.744 311.701 381.4 304.061 381.397Z" fill="#46A09A"/>
<path fill-rule="evenodd" clip-rule="evenodd" d="M319.341 370.713L317.405 370.711C317.405 378.133 311.431 384.149 304.066 384.149H303.994L304.061 386.099V384.149C296.695 384.147 290.722 378.128 290.725 370.705H289.575L290.725 370.711V370.705H289.575L290.725 370.711L288.855 370.705L290.722 370.778L290.725 370.711L288.855 370.705L290.722 370.778L290.725 370.703C290.725 363.28 296.701 357.264 304.066 357.264L304.069 355.368L303.975 357.261L304.066 357.264L304.069 355.368L303.975 357.261L304.066 357.264C311.431 357.264 317.407 363.283 317.405 370.705V370.759L319.341 370.713L321.274 370.665L319.509 370.708L321.274 370.705V370.665L319.509 370.708L321.274 370.705C321.274 361.129 313.575 353.367 304.071 353.364V355.314L304.165 353.367L304.071 353.364H304.066C294.562 353.364 286.858 361.123 286.853 370.7L288.789 370.703L286.855 370.624L286.853 370.697V370.711L288.253 370.705H286.853V370.711L288.253 370.705H286.853C286.855 380.282 294.554 388.044 304.058 388.046H304.127L304.063 386.207V388.046H304.127L304.063 386.207V388.046C313.567 388.046 321.271 380.29 321.274 370.713V370.665L319.341 370.713Z" fill="#3F234F"/>
<path fill-rule="evenodd" clip-rule="evenodd" d="M345.415 472.688L164.414 472.626C154.951 472.621 147.211 464.819 147.215 455.283L147.256 336.96C147.259 327.427 155.003 319.63 164.465 319.633L345.466 319.697C354.93 319.697 362.669 327.502 362.663 337.038L362.623 455.358C362.621 464.894 354.877 472.691 345.415 472.688Z" fill="#6796B1"/>
<path fill-rule="evenodd" clip-rule="evenodd" d="M164.465 319.633C164.465 319.633 160.289 328.122 170.482 328.124C180.675 328.127 339.119 328.183 339.119 328.183C339.119 328.183 347.554 329.315 347.557 319.829L164.465 319.633Z" fill="#AED7E8"/>
<path fill-rule="evenodd" clip-rule="evenodd" d="M342.234 378.962L336.671 390.777C336.671 390.777 208.303 360.258 176.824 363.98C150.387 367.104 147.498 355.766 147.251 352.05L147.215 455.283C147.211 464.819 154.951 472.621 164.414 472.624L345.415 472.686C354.877 472.691 362.621 464.894 362.623 455.358L362.65 378.671C355.215 385.299 342.234 378.962 342.234 378.962Z" fill="#6E9EBA"/>
<path fill-rule="evenodd" clip-rule="evenodd" d="M345.415 472.689V470.739L164.414 470.674C160.217 470.674 156.41 468.948 153.635 466.152C150.862 463.354 149.151 459.519 149.15 455.291V455.288H147.424L149.15 455.315V455.288H147.424L149.15 455.315V455.288L149.191 336.963C149.192 332.733 150.907 328.898 153.68 326.102C156.457 323.307 160.264 321.583 164.461 321.583V320.398L164.457 321.583H164.461V320.398L164.457 321.583L164.463 319.706L164.393 321.58L164.457 321.583L164.463 319.706L164.393 321.58L164.466 321.583L345.466 321.648C349.66 321.648 353.469 323.374 356.245 326.169C359.015 328.968 360.727 332.803 360.727 337.031H362.103L360.727 337.025V337.031H362.103L360.727 337.025L360.73 337.136L362.663 337.039H360.727L360.69 455.358C360.687 459.587 358.973 463.422 356.199 466.22C353.423 469.013 349.618 470.739 345.42 470.739V472.104L345.426 470.739H345.42V472.104L345.426 470.739L345.314 470.742L345.415 472.689L345.517 474.636L345.418 472.764L345.426 474.638L345.517 474.636L345.418 472.764L345.426 474.638L345.418 472.936L345.413 474.638H345.426L345.418 472.936L345.413 474.638H345.42C355.956 474.63 364.546 465.977 364.559 455.358L364.599 337.039L364.597 336.939L362.746 337.033L364.599 337.025L364.597 336.939L362.746 337.033L364.599 337.025L362.908 337.033L364.599 337.039V337.025L362.908 337.033L364.599 337.039V337.031C364.591 326.414 356.004 317.759 345.466 317.745L164.467 317.681L164.466 319.633L164.538 317.681H164.467H164.457L164.461 319.127V317.681H164.457L164.461 319.127V317.681C153.924 317.691 145.331 326.344 145.32 336.961L145.281 455.283H147.215L145.281 455.253V455.291C145.287 465.907 153.875 474.563 164.412 474.574L345.413 474.638L345.517 474.636L345.415 472.689Z" fill="#22215B"/>
<path fill-rule="evenodd" clip-rule="evenodd" d="M331.711 458.245L178.125 458.191C170.29 458.189 163.881 451.725 163.884 443.832L163.917 348.425C163.92 340.532 170.334 334.073 178.168 334.076L331.754 334.13C339.591 334.133 345.997 340.596 345.997 348.49L345.962 443.894C345.959 451.79 339.546 458.248 331.711 458.245Z" fill="#FFFFFE"/>
<path fill-rule="evenodd" clip-rule="evenodd" d="M178.125 458.191L331.711 458.245C339.546 458.248 345.959 451.79 345.962 443.894L345.981 394.911L336.674 383.115C332.629 377.988 324.903 377.985 320.855 383.11L286.471 426.639L274.927 412.007C270.655 406.588 262.491 406.586 258.213 411.999L245.888 427.6L208.863 380.662C204.618 375.281 196.499 375.305 192.287 380.713L163.894 417.164L163.884 443.832C163.881 451.725 170.29 458.189 178.125 458.191Z" fill="#FFFFFE"/>
<path fill-rule="evenodd" clip-rule="evenodd" d="M245.886 427.6L208.862 380.662C204.617 375.281 196.498 375.305 192.286 380.713L189.783 383.926L243.167 443.996C243.167 443.996 249.121 439.994 245.886 427.6Z" fill="#CBE5E9"/>
<path fill-rule="evenodd" clip-rule="evenodd" d="M284.575 447.97C284.575 447.97 294.381 440.96 286.469 426.638L274.927 412.006C270.655 406.588 262.49 406.585 258.213 411.998L256.139 414.624L284.575 447.97Z" fill="#CBE5E9"/>
<path fill-rule="evenodd" clip-rule="evenodd" d="M336.674 383.115C332.631 377.987 324.903 377.985 320.855 383.11L319.794 384.454L345.97 419.138L345.978 394.911L336.674 383.115Z" fill="#CBE5E9"/>
<path fill-rule="evenodd" clip-rule="evenodd" d="M178.125 458.191V460.141L331.711 460.194H331.741L331.717 458.43V460.194H331.741L331.717 458.43V460.194C340.626 460.186 347.887 452.872 347.895 443.893L347.914 394.91C347.914 394.469 347.767 394.043 347.493 393.698L338.189 381.9C335.789 378.854 332.258 377.311 328.762 377.316C325.269 377.311 321.743 378.851 319.341 381.895L286.471 423.503L276.442 410.792C273.927 407.598 270.231 405.985 266.568 405.99C262.909 405.985 259.215 407.595 256.699 410.784L245.889 424.467L210.378 379.449C207.885 376.285 204.222 374.685 200.595 374.69C196.942 374.685 193.256 376.306 190.764 379.508L162.371 415.96C162.105 416.299 161.959 416.727 161.957 417.164L161.949 443.828V443.817V443.834C161.956 452.813 169.214 460.13 178.125 460.141V458.191L178.126 456.241C174.742 456.238 171.675 454.849 169.435 452.594C167.199 450.335 165.82 447.243 165.818 443.834H164.633L165.818 443.842V443.834H164.633L165.818 443.842V443.831L165.828 417.837L193.809 381.916C195.544 379.692 198.052 378.595 200.595 378.59C203.12 378.595 205.611 379.678 207.348 381.876L244.373 428.814C244.738 429.277 245.299 429.549 245.887 429.549C246.474 429.549 247.035 429.277 247.401 428.814L259.727 413.213C261.485 410.988 264.01 409.892 266.568 409.89C269.127 409.892 271.655 410.991 273.413 413.218L284.954 427.85C285.319 428.313 285.882 428.585 286.469 428.585C287.058 428.585 287.618 428.313 287.983 427.85L322.367 384.324C324.013 382.245 326.37 381.221 328.762 381.216C331.157 381.221 333.517 382.245 335.159 384.326L344.045 395.592L344.026 443.893C344.026 447.302 342.645 450.394 340.407 452.648C338.167 454.902 335.101 456.295 331.717 456.295H331.69L331.711 458.053V456.295H331.69L331.711 458.053V456.295L178.126 456.241L178.125 458.191Z" fill="#3F234F"/>
<path fill-rule="evenodd" clip-rule="evenodd" d="M331.711 458.245V456.295L178.126 456.241C174.742 456.238 171.675 454.849 169.435 452.595C167.199 450.335 165.82 447.246 165.818 443.834H164.65L165.818 443.839V443.834H164.65L165.818 443.839L163.988 443.834L165.818 443.882V443.839L163.988 443.834L165.818 443.882V443.831L165.852 348.427C165.854 345.015 167.234 341.926 169.472 339.669C171.712 337.418 174.78 336.026 178.163 336.026V334.851L178.159 336.026H178.163V334.851L178.159 336.026L178.164 334.151L178.096 336.026H178.159L178.164 334.151L178.096 336.026H178.167L331.754 336.079C335.138 336.082 338.205 337.472 340.445 339.726C342.682 341.983 344.061 345.074 344.061 348.487H345.239L344.061 348.484V348.487H345.239L344.061 348.484L344.063 348.586L345.997 348.489H344.061L344.026 443.893C344.026 447.303 342.645 450.394 340.407 452.651C338.167 454.903 335.101 456.295 331.717 456.295V457.978L331.725 456.295H331.717V457.978L331.725 456.295L331.559 456.3L331.711 458.245L331.863 460.187L331.714 458.277L331.727 460.195L331.863 460.187L331.714 458.277L331.727 460.195L331.714 458.355L331.706 460.195H331.727L331.714 458.355L331.706 460.195H331.717C340.626 460.187 347.887 452.872 347.895 443.893L347.93 348.492L347.927 348.392L346.053 348.487L347.93 348.473L347.927 348.392L346.053 348.487L347.93 348.473L346.149 348.487L347.93 348.492V348.473L346.149 348.487L347.93 348.492V348.487C347.922 339.508 340.666 332.191 331.754 332.18L178.169 332.126L178.167 334.076L178.24 332.129L178.169 332.126H178.159L178.163 333.569V332.126H178.159L178.163 333.569V332.126C169.253 332.134 161.993 339.446 161.982 348.425L161.949 443.829L163.884 443.831L161.949 443.78V443.834C161.956 452.813 169.214 460.13 178.125 460.141L331.711 460.195L331.863 460.187L331.711 458.245Z" fill="#3F234F"/>
<path fill-rule="evenodd" clip-rule="evenodd" d="M308.596 370.713C308.594 379.212 301.751 386.101 293.316 386.099C284.879 386.096 278.042 379.201 278.044 370.702C278.047 362.2 284.89 355.311 293.324 355.313C301.762 355.316 308.599 362.211 308.596 370.713Z" fill="#99D3D1"/>
<path fill-rule="evenodd" clip-rule="evenodd" d="M293.319 381.397C285.676 381.394 279.364 375.733 278.242 368.352C278.124 369.119 278.044 369.9 278.044 370.703C278.042 379.202 284.879 386.097 293.316 386.099C301.751 386.102 308.594 379.213 308.596 370.713C308.596 369.911 308.516 369.13 308.399 368.362C307.271 375.744 300.959 381.4 293.319 381.397Z" fill="#46A09A"/>
<path fill-rule="evenodd" clip-rule="evenodd" d="M308.597 370.713L306.663 370.711C306.661 378.133 300.687 384.149 293.322 384.149H293.247L293.317 386.099V384.149C285.949 384.147 279.981 378.128 279.981 370.705H278.138L279.981 370.754V370.705H278.138L279.981 370.754V370.703C279.981 363.28 285.954 357.264 293.322 357.264L293.325 355.368L293.231 357.261L293.322 357.264L293.325 355.368L293.231 357.261L293.322 357.264C300.687 357.264 306.663 363.288 306.663 370.711V370.756L308.597 370.713L310.533 370.668L308.709 370.711H310.533V370.668L308.709 370.711H310.533C310.53 361.134 302.831 353.367 293.327 353.364L293.325 355.314L293.418 353.367L293.327 353.364H293.322C283.818 353.364 276.114 361.123 276.111 370.7L278.045 370.703L276.111 370.649V370.705C276.111 380.282 283.81 388.044 293.314 388.046H293.381L293.319 386.207V388.046H293.381L293.319 386.207V388.046C302.821 388.046 310.527 380.29 310.533 370.713V370.668L308.597 370.713Z" fill="#3F234F"/>
<path fill-rule="evenodd" clip-rule="evenodd" d="M434.442 401.843L393.498 360.587C391.546 358.621 388.383 358.621 386.434 360.587L345.487 401.843C342.343 405.013 344.573 410.436 349.021 410.436H353.81C356.57 410.436 358.807 412.688 358.807 415.47V465.974C358.807 468.753 361.042 471.005 363.802 471.005H416.13C418.887 471.005 421.125 468.753 421.125 465.974V415.47C421.125 412.688 423.359 410.436 426.119 410.436H430.908C435.359 410.436 437.586 405.013 434.442 401.843Z" fill="#F35656"/>
<path fill-rule="evenodd" clip-rule="evenodd" d="M421.125 465.974V415.467C421.125 412.688 423.362 410.436 426.119 410.436H430.908C435.359 410.436 437.586 405.012 434.442 401.843L428.802 396.16C429.053 400.65 428.165 404.714 424.111 404.714C415.045 404.714 416.079 415.922 416.079 428.435C416.079 437.925 416.058 460.604 416.047 471.005H416.13C418.887 471.005 421.125 468.753 421.125 465.974Z" fill="#AB4040"/>
<path fill-rule="evenodd" clip-rule="evenodd" d="M365.471 396.72C371.786 390.871 388.834 374.513 398.29 365.418L393.498 360.587C391.546 358.621 388.383 358.621 386.434 360.587L345.487 401.843C342.343 405.013 344.573 410.436 349.021 410.436H353.81C356.57 410.436 358.807 412.688 358.807 415.47V465.974C358.807 468.753 361.042 471.005 363.802 471.005H371.026V410.348C371.026 410.348 356.532 404.994 365.471 396.72Z" fill="#F26A6A"/>
<path fill-rule="evenodd" clip-rule="evenodd" d="M434.442 401.843L435.81 400.464L394.866 359.208C393.517 357.851 391.733 357.161 389.967 357.164C388.199 357.161 386.413 357.851 385.066 359.208L344.119 400.464C342.738 401.848 342.074 403.65 342.082 405.366C342.085 407.165 342.765 408.888 343.975 410.2C345.181 411.514 346.981 412.392 349.021 412.387H353.81C355.501 412.389 356.869 413.768 356.871 415.467V465.974C356.874 469.831 359.975 472.955 363.802 472.955H416.13C419.957 472.955 423.058 469.831 423.058 465.974V415.467C423.061 413.765 424.429 412.389 426.119 412.387H430.909C432.951 412.392 434.749 411.514 435.957 410.202C437.167 408.891 437.847 407.165 437.85 405.366C437.858 403.65 437.191 401.848 435.81 400.464L434.442 401.843L433.074 403.222C433.725 403.887 433.973 404.609 433.978 405.366C433.983 406.155 433.663 406.965 433.127 407.542C432.581 408.115 431.879 408.479 430.909 408.487H426.119C422.29 408.487 419.189 411.611 419.189 415.467V465.974C419.186 467.674 417.818 469.053 416.13 469.058H363.802C362.111 469.053 360.746 467.676 360.743 465.974V415.467C360.741 411.611 357.639 408.487 353.81 408.487H349.021C348.05 408.479 347.349 408.115 346.805 407.542C346.266 406.965 345.949 406.155 345.951 405.366C345.959 404.609 346.205 403.887 346.858 403.222L387.802 361.966C388.405 361.36 389.175 361.066 389.967 361.064C390.757 361.066 391.527 361.36 392.13 361.966L433.074 403.222L434.442 401.843Z" fill="#22215B"/>
<path fill-rule="evenodd" clip-rule="evenodd" d="M333.052 472.688L152.052 472.626C142.589 472.621 134.851 464.819 134.854 455.283L134.895 336.96C134.897 327.427 142.642 319.63 152.104 319.633L333.103 319.697C342.567 319.697 350.306 327.502 350.303 337.038L350.263 455.358C350.258 464.894 342.516 472.691 333.052 472.688Z" fill="#8CB7D7"/>
<path fill-rule="evenodd" clip-rule="evenodd" d="M152.103 319.633C152.103 319.633 147.927 328.122 158.12 328.124C168.315 328.127 326.759 328.183 326.759 328.183C326.759 328.183 335.194 329.315 335.197 319.829L152.103 319.633Z" fill="#AED7E8"/>
<path fill-rule="evenodd" clip-rule="evenodd" d="M329.871 378.962L324.311 390.777C324.311 390.777 195.941 360.258 164.462 363.98C138.025 367.104 135.138 355.766 134.889 352.05L134.854 455.283C134.851 464.819 142.589 472.621 152.052 472.624L333.052 472.686C342.516 472.691 350.258 464.894 350.263 455.358L350.287 378.671C342.852 385.299 329.871 378.962 329.871 378.962Z" fill="#6E9EBA"/>
<path fill-rule="evenodd" clip-rule="evenodd" d="M333.053 472.689L333.055 470.739L152.052 470.674C147.857 470.674 144.049 468.948 141.273 466.152C138.502 463.354 136.79 459.519 136.79 455.291V455.288H135.064L136.788 455.315L136.79 455.288H135.064L136.788 455.315L136.79 455.288L136.829 336.963C136.832 332.733 138.545 328.898 141.318 326.102C144.095 323.307 147.903 321.583 152.1 321.583V320.398L152.096 321.583H152.1V320.398L152.096 321.583L152.101 319.703L152.031 321.58L152.096 321.583L152.101 319.703L152.031 321.58L152.104 321.583L333.103 321.648C337.301 321.648 341.109 323.374 343.882 326.169C346.655 328.968 348.367 332.803 348.367 337.031V337.042V337.103L350.303 337.039L348.367 337.042L348.327 455.358C348.325 459.587 346.613 463.422 343.839 466.22C341.063 469.013 337.255 470.739 333.061 470.739V472.104L333.066 470.739H333.061V472.104L333.066 470.739L332.951 470.742L333.053 472.689L333.154 474.636L333.058 472.764L333.066 474.638L333.154 474.636L333.058 472.764L333.066 474.638L333.058 472.939L333.053 474.638H333.066L333.058 472.939L333.053 474.638H333.061C343.597 474.63 352.186 465.977 352.197 455.358L352.237 337.039V336.974L350.431 337.033L352.237 337.025V336.974L350.431 337.033L352.237 337.025L350.647 337.033H352.237V337.025L350.647 337.033H352.237C352.231 326.417 343.642 317.759 333.106 317.745L152.105 317.681L152.104 319.633L152.178 317.681H152.108H152.096L152.1 319.127V317.681H152.096L152.1 319.127V317.681C141.563 317.691 132.971 326.344 132.96 336.961L132.919 455.283H134.854L132.919 455.253V455.291C132.926 465.907 141.513 474.563 152.051 474.574L333.053 474.638L333.154 474.636L333.053 472.689Z" fill="#22215B"/>
<path fill-rule="evenodd" clip-rule="evenodd" d="M319.351 458.245L165.763 458.191C157.928 458.189 151.519 451.725 151.522 443.832L151.556 348.425C151.559 340.532 157.972 334.073 165.807 334.076L319.394 334.13C327.226 334.133 333.636 340.596 333.634 348.49L333.599 443.894C333.599 451.79 327.186 458.248 319.351 458.245Z" fill="#FFFFFE"/>
<path fill-rule="evenodd" clip-rule="evenodd" d="M165.763 458.191L319.351 458.245C327.186 458.248 333.599 451.79 333.599 443.894L333.618 394.911L324.314 383.115C320.268 377.988 312.543 377.985 308.495 383.11L274.108 426.639L262.566 412.007C258.293 406.588 250.129 406.586 245.85 411.999L233.527 427.6L196.501 380.662C192.256 375.281 184.137 375.305 179.924 380.713L151.532 417.164L151.522 443.832C151.519 451.725 157.928 458.189 165.763 458.191Z" fill="#FFFFFE"/>
<path fill-rule="evenodd" clip-rule="evenodd" d="M233.528 427.6L196.502 380.662C192.257 375.281 184.138 375.305 179.925 380.713L177.422 383.926L230.807 443.996C230.807 443.996 236.762 439.994 233.528 427.6Z" fill="#CBE5E9"/>
<path fill-rule="evenodd" clip-rule="evenodd" d="M272.215 447.97C272.215 447.97 282.018 440.96 274.109 426.638L262.566 412.006C258.293 406.588 250.129 406.585 245.85 411.998L243.776 414.624L272.215 447.97Z" fill="#CBE5E9"/>
<path fill-rule="evenodd" clip-rule="evenodd" d="M324.314 383.115C320.268 377.987 312.54 377.985 308.492 383.11L307.431 384.454L333.61 419.138L333.618 394.911L324.314 383.115Z" fill="#CBE5E9"/>
<path fill-rule="evenodd" clip-rule="evenodd" d="M165.764 458.191V460.141L319.349 460.194H319.378L319.354 458.43V460.194H319.378L319.354 458.43V460.194C328.266 460.186 335.525 452.872 335.535 443.893L335.551 394.91C335.551 394.469 335.407 394.043 335.133 393.698L325.829 381.9C323.426 378.854 319.898 377.311 316.402 377.316C312.909 377.311 309.381 378.851 306.981 381.895L274.109 423.503L264.082 410.792C261.566 407.598 257.87 405.985 254.207 405.99C250.548 405.985 246.854 407.595 244.336 410.784L233.527 424.467L198.017 379.449C195.524 376.285 191.861 374.685 188.233 374.69C184.581 374.685 180.895 376.306 178.402 379.508L150.01 415.96C149.743 416.299 149.597 416.727 149.597 417.164L149.588 443.828V443.817V443.834C149.595 452.813 156.852 460.13 165.764 460.141V458.191L165.765 456.241C162.38 456.238 159.314 454.849 157.073 452.594C154.837 450.335 153.458 447.246 153.457 443.834H152.272L153.457 443.842V443.834H152.272L153.457 443.842L153.458 443.831L153.467 417.837L181.446 381.916C183.182 379.692 185.691 378.595 188.233 378.59C190.759 378.595 193.251 379.678 194.987 381.876L232.012 428.814C232.378 429.277 232.939 429.549 233.526 429.549C234.113 429.549 234.676 429.277 235.042 428.814L247.364 413.213C249.124 410.988 251.648 409.892 254.207 409.89C256.767 409.892 259.293 410.991 261.052 413.218L272.594 427.85C272.959 428.313 273.519 428.585 274.109 428.585C274.695 428.585 275.258 428.313 275.623 427.85L310.007 384.324C311.653 382.245 314.01 381.221 316.402 381.216C318.794 381.221 321.154 382.245 322.799 384.326L331.685 395.592L331.666 443.893C331.663 447.302 330.285 450.394 328.047 452.648C325.805 454.902 322.738 456.295 319.354 456.295H319.327L319.351 458.056L319.354 456.295H319.327L319.351 458.056L319.354 456.295L165.765 456.241L165.764 458.191Z" fill="#22215B"/>
<path fill-rule="evenodd" clip-rule="evenodd" d="M319.351 458.245V456.295L165.765 456.241C162.38 456.238 159.314 454.849 157.073 452.595C154.837 450.335 153.458 447.246 153.457 443.834H151.69L153.457 443.858V443.834H151.69L153.457 443.858L153.458 443.831L153.491 348.427C153.492 345.015 154.873 341.926 157.111 339.669C159.351 337.418 162.419 336.026 165.802 336.026V334.846L165.798 336.026H165.802V334.846L165.798 336.026L165.804 334.149L165.735 336.026H165.798L165.804 334.149L165.735 336.026H165.806L319.394 336.079C322.775 336.082 325.842 337.472 328.082 339.726C330.319 341.983 331.698 345.074 331.701 348.487V348.538L333.634 348.489H331.701L331.666 443.893C331.663 447.303 330.285 450.394 328.047 452.651C325.805 454.903 322.735 456.295 319.351 456.295L319.354 457.984L319.362 456.295H319.351L319.354 457.984L319.362 456.295L319.197 456.3L319.351 458.245L319.503 460.187L319.354 458.277L319.365 460.195L319.503 460.187L319.354 458.277L319.365 460.195L319.354 458.355L319.346 460.195H319.365L319.354 458.355L319.346 460.195H319.354C328.266 460.187 335.525 452.872 335.535 443.893L335.57 348.492V348.441L333.735 348.487H335.57V348.441L333.735 348.487H335.57C335.562 339.508 328.303 332.191 319.394 332.18L165.807 332.126V334.076L165.88 332.129L165.807 332.126H165.798L165.802 333.564V332.126H165.798L165.802 333.564V332.126C156.892 332.134 149.632 339.446 149.621 348.425L149.588 443.829L151.523 443.831L149.588 443.804V443.834C149.595 452.813 156.852 460.13 165.764 460.141L319.349 460.195L319.503 460.187L319.351 458.245Z" fill="#22215B"/>
<path fill-rule="evenodd" clip-rule="evenodd" d="M296.234 370.713C296.231 379.212 289.391 386.101 280.954 386.099C272.517 386.096 265.679 379.201 265.683 370.702C265.686 362.2 272.527 355.311 280.965 355.313C289.399 355.316 296.237 362.211 296.234 370.713Z" fill="#99D3D1"/>
<path fill-rule="evenodd" clip-rule="evenodd" d="M280.954 381.397C273.314 381.394 267.005 375.733 265.881 368.352C265.762 369.119 265.683 369.9 265.683 370.703C265.679 379.202 272.517 386.097 280.954 386.099C289.391 386.102 296.231 379.213 296.234 370.713C296.234 369.911 296.157 369.13 296.039 368.362C294.911 375.744 288.597 381.4 280.954 381.397Z" fill="#46A09A"/>
<path fill-rule="evenodd" clip-rule="evenodd" d="M296.234 370.713L294.301 370.711C294.298 378.133 288.325 384.149 280.959 384.149H280.887L280.954 386.099V384.149C273.589 384.147 267.618 378.13 267.618 370.708V370.705H265.882L267.618 370.735V370.705H265.882L267.618 370.735V370.703C267.618 363.28 273.594 357.264 280.959 357.264L280.962 355.368L280.871 357.261L280.959 357.264L280.962 355.368L280.871 357.261L280.959 357.264C288.327 357.264 294.301 363.288 294.301 370.711V370.756L296.234 370.713L298.17 370.668L296.346 370.711H298.17V370.668L296.346 370.711H298.17C298.17 361.134 290.469 353.367 280.965 353.364V355.314L281.058 353.367L280.965 353.364H280.959C271.455 353.364 263.753 361.123 263.749 370.7L265.683 370.703L263.749 370.665V370.708C263.75 380.285 271.45 388.044 280.951 388.046H281.021L280.957 386.207V388.046H281.021L280.957 386.207V388.046C290.461 388.046 298.165 380.29 298.17 370.713V370.668L296.234 370.713Z" fill="#3F234F"/>
<path fill-rule="evenodd" clip-rule="evenodd" d="M303.218 71.5041C297.418 71.5041 291.821 72.3791 286.546 73.9915C276.919 33.1285 240.473 2.73145 196.974 2.73145C153.747 2.73145 117.484 32.7555 107.588 73.2347C103.118 72.1095 98.445 71.5041 93.6298 71.5041C61.9269 71.5041 36.2256 97.4014 36.2256 129.345C36.2256 161.29 61.9269 187.186 93.6298 187.186H182.935C187.513 187.892 192.201 188.259 196.974 188.259C201.748 188.259 206.437 187.892 211.014 187.186H303.218C334.919 187.186 360.618 161.29 360.618 129.345C360.618 97.4014 334.919 71.5041 303.218 71.5041Z" fill="#5E6AD2"/>
<path fill-rule="evenodd" clip-rule="evenodd" d="M182.934 187.186C187.512 187.891 192.2 188.259 196.973 188.259C201.747 188.259 206.436 187.891 211.013 187.186H303.218C334.919 187.186 360.618 161.29 360.618 129.344C360.618 97.401 334.919 71.5039 303.218 71.5039C297.418 71.5039 291.82 72.3786 286.543 73.991C286.543 73.991 335.196 80.4814 335.196 128.797C335.196 177.113 292.479 173.736 292.479 173.736H82.6372C82.6372 173.736 70.1068 173.653 54.5713 171.718C64.8177 181.31 78.5398 187.186 93.6289 187.186H182.934Z" fill="#415EB6"/>
<path fill-rule="evenodd" clip-rule="evenodd" d="M117.018 87.846C117.018 87.846 148.204 -8.8421 245.527 16.6767C231.43 7.84208 214.797 2.73145 196.974 2.73145C153.747 2.73145 117.484 32.7555 107.588 73.2347C103.118 72.1095 98.4451 71.5041 93.6299 71.5041C61.9269 71.5041 36.2256 97.4014 36.2256 129.345C36.2256 138.277 38.2381 146.734 41.8259 154.286C42.5797 125.333 52.9256 75.5473 117.018 87.846Z" fill="#DDEEFB"/>
<path fill-rule="evenodd" clip-rule="evenodd" d="M306.242 412.963L106.759 432.369C96.3309 433.382 86.9747 425.618 85.9685 415.109L73.4736 284.703C72.4672 274.197 80.1757 264.77 90.6035 263.755L290.085 244.35C300.514 243.336 309.871 251.103 310.877 261.61L323.37 392.016C324.378 402.524 316.669 411.95 306.242 412.963Z" fill="#8CB7D7"/>
<path fill-rule="evenodd" clip-rule="evenodd" d="M306.242 412.963L306.055 411.024L106.574 430.428C106.021 430.482 105.472 430.509 104.928 430.509C96.2541 430.514 88.7368 423.792 87.8944 414.921L75.401 284.518C75.3477 283.96 75.3218 283.408 75.3218 282.859C75.3162 274.119 81.9856 266.544 90.7904 265.697L290.271 246.291C290.826 246.238 291.375 246.212 291.919 246.212C300.591 246.206 308.109 252.926 308.951 261.798L321.445 392.202C321.498 392.759 321.527 393.312 321.527 393.861C321.533 402.6 314.861 410.176 306.055 411.024L306.242 412.963L306.429 414.905C317.25 413.844 325.389 404.609 325.394 393.861C325.394 393.188 325.365 392.509 325.298 391.828L312.805 261.424C311.749 250.519 302.586 242.317 291.919 242.312C291.25 242.312 290.578 242.343 289.901 242.409L90.4189 261.815C79.5965 262.876 71.4568 272.11 71.4512 282.859C71.4512 283.532 71.484 284.211 71.5482 284.892L84.0432 415.296C85.097 426.203 94.2608 434.403 104.928 434.409C105.595 434.409 106.268 434.376 106.946 434.312L306.429 414.905L306.242 412.963Z" fill="#22215B"/>
<path fill-rule="evenodd" clip-rule="evenodd" d="M289.61 398.52L120.341 414.986C111.706 415.826 103.959 409.395 103.125 400.693L93.0506 295.548C92.2178 286.847 98.6005 279.04 107.236 278.199L276.506 261.733C285.138 260.893 292.887 267.325 293.722 276.026L303.794 381.171C304.628 389.872 298.244 397.68 289.61 398.52Z" fill="#FFFFFE"/>
<path fill-rule="evenodd" clip-rule="evenodd" d="M120.34 414.985L289.61 398.519C298.244 397.679 304.628 389.872 303.794 381.17L298.62 327.187L287.116 315.186C282.116 309.972 273.599 310.802 269.682 316.885L236.4 368.556L222.131 353.671C216.846 348.161 207.847 349.036 203.708 355.464L191.779 373.982L146 326.236C140.752 320.763 131.806 321.663 127.736 328.078L100.308 371.303L103.124 400.693C103.958 409.394 111.705 415.825 120.34 414.985Z" fill="#FFFFFE"/>
<path fill-rule="evenodd" clip-rule="evenodd" d="M191.781 373.983L146.002 326.236C140.754 320.764 131.807 321.664 127.737 328.079L125.321 331.887L190.519 392.342C190.519 392.342 196.657 387.292 191.781 373.983Z" fill="#D8FFFF"/>
<path fill-rule="evenodd" clip-rule="evenodd" d="M236.575 392.269C236.575 392.269 246.637 383.489 236.401 368.556L222.132 353.671C216.847 348.161 207.848 349.036 203.709 355.465L201.702 358.578L236.575 392.269Z" fill="#D8FFFF"/>
<path fill-rule="evenodd" clip-rule="evenodd" d="M287.119 315.186C282.117 309.972 273.602 310.802 269.682 316.885L268.655 318.48L301.181 353.889L298.623 327.187L287.119 315.186Z" fill="#D8FFFF"/>
<path fill-rule="evenodd" clip-rule="evenodd" d="M120.341 414.986L120.528 416.927L289.796 400.459C298.932 399.562 305.796 391.774 305.804 382.698C305.804 382.132 305.775 381.559 305.722 380.985L300.548 327.001C300.506 326.56 300.319 326.15 300.015 325.832L288.508 313.832C285.914 311.123 282.471 309.792 279.082 309.795C274.844 309.79 270.607 311.866 268.058 315.822L236.102 365.438L223.523 352.317C220.8 349.475 217.193 348.08 213.638 348.086C209.195 348.08 204.754 350.254 202.085 354.404L191.481 370.867L147.392 324.884C144.696 322.067 141.123 320.689 137.602 320.691C133.172 320.686 128.744 322.87 126.106 327.028L98.6781 370.253C98.4461 370.616 98.341 371.058 98.3831 371.489L101.198 400.882C102.09 410.087 109.82 417.003 118.826 417.011C119.388 417.011 119.957 416.981 120.528 416.927L120.341 414.986L120.156 413.044C119.709 413.09 119.265 413.108 118.826 413.108C111.813 413.114 105.73 407.679 105.051 400.505L102.299 371.785L129.367 329.129C131.267 326.137 134.406 324.596 137.602 324.591C140.139 324.594 142.66 325.563 144.608 327.591L190.387 375.34C190.796 375.766 191.38 375.984 191.966 375.925C192.55 375.868 193.082 375.542 193.402 375.047L205.332 356.526C207.262 353.531 210.421 351.991 213.638 351.985C216.209 351.988 218.764 352.971 220.74 355.026L235.01 369.911C235.418 370.336 236.002 370.552 236.587 370.498C237.172 370.441 237.705 370.115 238.024 369.617L271.306 317.947C273.114 315.143 276.068 313.703 279.082 313.697C281.487 313.7 283.876 314.618 285.724 316.544L296.762 328.052L301.871 381.359C301.911 381.809 301.935 382.256 301.935 382.698C301.94 389.764 296.54 395.897 289.423 396.578L120.156 413.044L120.341 414.986Z" fill="#22215B"/>
<path fill-rule="evenodd" clip-rule="evenodd" d="M289.61 398.52L289.423 396.578L120.155 413.044C119.708 413.09 119.265 413.109 118.825 413.109C111.813 413.114 105.729 407.677 105.051 400.505L94.9767 295.36C94.9329 294.908 94.9124 294.46 94.9124 294.019C94.9071 286.955 100.304 280.823 107.421 280.138L276.69 263.674C277.138 263.63 277.58 263.609 278.02 263.609C285.031 263.603 291.116 269.043 291.796 276.215L301.868 381.359C301.911 381.809 301.935 382.256 301.935 382.698C301.94 389.765 296.54 395.894 289.423 396.578L289.796 400.459C298.932 399.562 305.796 391.774 305.802 382.698C305.802 382.132 305.778 381.559 305.722 380.985L295.647 275.838C294.756 266.634 287.026 259.715 278.02 259.709C277.458 259.709 276.89 259.737 276.319 259.793L107.05 276.258C97.9135 277.154 91.0473 284.946 91.042 294.019C91.042 294.587 91.0692 295.158 91.1239 295.734L101.198 400.882C102.09 410.084 109.82 417.003 118.825 417.008C119.388 417.008 119.956 416.981 120.526 416.927L289.796 400.459L289.61 398.52Z" fill="#22215B"/>
<path fill-rule="evenodd" clip-rule="evenodd" d="M254.861 304.541C255.758 313.91 248.948 322.237 239.649 323.142C230.35 324.047 222.086 317.182 221.189 307.815C220.289 298.446 227.101 290.119 236.398 289.214C245.697 288.309 253.961 295.168 254.861 304.541Z" fill="#34DEDE"/>
<path fill-rule="evenodd" clip-rule="evenodd" d="M239.154 317.96C230.732 318.781 223.177 313.22 221.157 305.202C221.109 306.062 221.104 306.931 221.19 307.815C222.087 317.184 230.351 324.046 239.649 323.141C248.948 322.236 255.758 313.909 254.861 304.54C254.775 303.657 254.606 302.806 254.396 301.971C253.934 310.228 247.575 317.141 239.154 317.96Z" fill="#11A4A4"/>
<path fill-rule="evenodd" clip-rule="evenodd" d="M254.861 304.541L252.935 304.727C252.982 305.222 253.004 305.712 253.004 306.197C253.006 313.872 247.209 320.452 239.463 321.203C238.973 321.249 238.486 321.273 238.004 321.273C230.387 321.273 223.858 315.432 223.114 307.627C223.068 307.134 223.045 306.641 223.045 306.157C223.043 298.481 228.84 291.905 236.584 291.156C237.076 291.107 237.563 291.083 238.045 291.083C245.662 291.083 252.189 296.925 252.935 304.727L254.861 304.541L256.786 304.352C255.841 294.533 247.647 287.184 238.045 287.184C237.439 287.184 236.827 287.213 236.213 287.275C226.466 288.223 219.174 296.48 219.174 306.157C219.174 306.768 219.203 307.385 219.263 308.001C220.206 317.823 228.403 325.17 238.004 325.173C238.61 325.173 239.22 325.143 239.835 325.084C249.582 324.131 256.873 315.871 256.875 306.197C256.875 305.586 256.846 304.972 256.786 304.352L254.861 304.541Z" fill="#22215B"/>
<path fill-rule="evenodd" clip-rule="evenodd" d="M273.023 187.186V272.551C273.023 273.628 273.89 274.501 274.959 274.501C276.029 274.501 276.895 273.628 276.895 272.551V187.186C276.895 186.109 276.029 185.236 274.959 185.236C273.89 185.236 273.023 186.109 273.023 187.186Z" fill="#5E6AD2"/>
<path fill-rule="evenodd" clip-rule="evenodd" d="M111.509 187.186V286.975C111.509 288.053 112.374 288.925 113.443 288.925L115.378 286.975C115.378 285.898 115.378 187.186 115.378 187.186C115.378 186.109 114.513 185.236 113.443 185.236C112.374 185.236 111.509 186.109 111.509 187.186Z" fill="#5E6AD2"/>
<path fill-rule="evenodd" clip-rule="evenodd" d="M120.591 286.976C120.591 290.951 117.392 294.177 113.444 294.177C109.495 294.177 106.296 290.951 106.296 286.976C106.296 282.998 109.495 279.771 113.444 279.771C117.392 279.771 120.591 282.998 120.591 286.976Z" fill="#5E6AD2"/>
<path fill-rule="evenodd" clip-rule="evenodd" d="M282.109 272.552C282.109 276.529 278.909 279.753 274.959 279.753C271.013 279.753 267.812 276.529 267.812 272.552C267.812 268.573 271.013 265.35 274.959 265.35C278.909 265.35 282.109 268.573 282.109 272.552Z" fill="#5E6AD2"/>
<path fill-rule="evenodd" clip-rule="evenodd" d="M136.974 457.679C136.852 456.898 136.79 456.101 136.79 455.291V455.285L136.798 431.405L149.592 430.161L149.587 443.829V443.818V443.834C149.59 447.435 150.758 450.766 152.73 453.467L136.974 457.679Z" fill="#52748B"/>
<path fill-rule="evenodd" clip-rule="evenodd" d="M134.854 458.245L135.54 431.529L136.798 431.405L136.79 455.285V455.291C136.79 456.101 136.852 456.901 136.974 457.679L134.854 458.245Z" fill="#281634"/>
<path fill-rule="evenodd" clip-rule="evenodd" d="M233.527 424.468L231.717 422.173L235.643 421.791L233.527 424.468ZM272.495 421.459L270.111 418.438L278.778 417.595L276.591 420.363L272.495 421.459Z" fill="#B6B8B5"/>
<path fill-rule="evenodd" clip-rule="evenodd" d="M156.854 452.366C154.748 450.131 153.46 447.136 153.457 443.842L153.458 443.831L153.463 429.784L213.028 423.989L222.624 434.788L156.854 452.366ZM234.315 431.664C234.232 430.977 234.117 430.255 233.966 429.499C234.386 429.399 234.769 429.159 235.042 428.815L241.001 421.268L248.796 420.509L253.855 426.442L234.315 431.664ZM282.861 418.688L284.138 417.073L291.639 416.343L282.861 418.688Z" fill="#B6B8B5"/>
<path fill-rule="evenodd" clip-rule="evenodd" d="M222.624 434.788L213.028 423.988L227.126 422.62L232.012 428.814C232.378 429.278 232.939 429.55 233.526 429.55C233.675 429.55 233.822 429.533 233.966 429.498C234.117 430.255 234.232 430.977 234.315 431.664L222.624 434.788Z" fill="#90A5A9"/>
<path fill-rule="evenodd" clip-rule="evenodd" d="M253.855 426.442L248.796 420.511L265.521 418.885L268.413 422.55L253.855 426.442Z" fill="#90A5A9"/>
<path fill-rule="evenodd" clip-rule="evenodd" d="M233.527 429.55C232.94 429.55 232.378 429.277 232.012 428.814L227.125 422.62L231.717 422.173L233.527 424.468L235.644 421.791L241.001 421.271L235.041 428.814C234.768 429.162 234.386 429.399 233.965 429.498C233.822 429.533 233.676 429.55 233.527 429.55ZM268.413 422.55L265.521 418.885L270.111 418.438L272.495 421.459L268.413 422.55ZM276.591 420.363L278.778 417.595L284.138 417.072L282.861 418.688L276.591 420.363Z" fill="#281634"/>
<path fill-rule="evenodd" clip-rule="evenodd" d="M152.731 453.468C150.758 450.766 149.591 447.435 149.588 443.834V443.829L149.592 430.161L153.463 429.784L153.458 443.832L153.457 443.842C153.46 447.136 154.749 450.131 156.854 452.366L152.731 453.468Z" fill="#281634"/>
<path fill-rule="evenodd" clip-rule="evenodd" d="M135.541 431.529L135.564 430.614L314.189 410.318L291.639 416.343L284.138 417.073L278.778 417.592L270.111 418.438L265.521 418.885L248.796 420.509L241.001 421.269L235.643 421.788L231.717 422.171L227.126 422.618L213.028 423.989L153.462 429.784L149.592 430.161L136.798 431.406L135.541 431.529Z" fill="#281634"/>
<path fill-rule="evenodd" clip-rule="evenodd" d="M416.042 341.87C416.042 345.196 413.364 347.895 410.063 347.895C406.762 347.895 404.084 345.196 404.084 341.87C404.084 338.544 406.762 335.846 410.063 335.846C413.364 335.846 416.042 338.544 416.042 341.87Z" fill="#5E6AD2"/>
<path fill-rule="evenodd" clip-rule="evenodd" d="M455.293 347.394C455.293 349.058 453.954 350.407 452.303 350.407C450.653 350.407 449.314 349.058 449.314 347.394C449.314 345.732 450.653 344.383 452.303 344.383C453.954 344.383 455.293 345.732 455.293 347.394Z" fill="#5E6AD2"/>
<path fill-rule="evenodd" clip-rule="evenodd" d="M24.4683 154.286C24.4683 155.95 23.1303 157.299 21.4797 157.299C19.8291 157.299 18.4897 155.95 18.4897 154.286C18.4897 152.623 19.8291 151.274 21.4797 151.274C23.1303 151.274 24.4683 152.623 24.4683 154.286Z" fill="#5E6AD2"/>
<path fill-rule="evenodd" clip-rule="evenodd" d="M413.053 172.468C413.053 174.133 411.714 175.481 410.063 175.481C408.413 175.481 407.077 174.133 407.077 172.468C407.077 170.805 408.413 169.457 410.063 169.457C411.714 169.457 413.053 170.805 413.053 172.468Z" fill="#5E6AD2"/>
<path fill-rule="evenodd" clip-rule="evenodd" d="M88.6161 221.367C88.6161 223.03 87.2782 224.378 85.6262 224.378C83.9756 224.378 82.6377 223.03 82.6377 221.367C82.6377 219.704 83.9756 218.354 85.6262 218.354C87.2782 218.354 88.6161 219.704 88.6161 221.367Z" fill="#5E6AD2"/>
<path fill-rule="evenodd" clip-rule="evenodd" d="M410.063 312.596C410.063 314.258 408.724 315.609 407.074 315.609C405.423 315.609 404.084 314.258 404.084 312.596C404.084 310.932 405.423 309.585 407.074 309.585C408.724 309.585 410.063 310.932 410.063 312.596Z" fill="#5E6AD2"/>
<path fill-rule="evenodd" clip-rule="evenodd" d="M299.226 202.246C299.226 203.909 297.887 205.257 296.236 205.257C294.586 205.257 293.247 203.909 293.247 202.246C293.247 200.583 294.586 199.233 296.236 199.233C297.887 199.233 299.226 200.583 299.226 202.246Z" fill="#5E6AD2"/>
<path fill-rule="evenodd" clip-rule="evenodd" d="M45.6898 332.818C45.6898 334.483 44.352 335.829 42.7013 335.829C41.0493 335.829 39.7114 334.483 39.7114 332.818C39.7114 331.154 41.0493 329.805 42.7013 329.805C44.352 329.805 45.6898 331.154 45.6898 332.818Z" fill="#5E6AD2"/>
<path fill-rule="evenodd" clip-rule="evenodd" d="M19.3525 169.457C19.3525 172.783 16.6752 175.481 13.374 175.481C10.0728 175.481 7.39551 172.783 7.39551 169.457C7.39551 166.13 10.0728 163.433 13.374 163.433C16.6752 163.433 19.3525 166.13 19.3525 169.457Z" fill="#5E6AD2"/>
<path fill-rule="evenodd" clip-rule="evenodd" d="M402.389 193.211C402.389 196.537 399.711 199.233 396.41 199.233C393.108 199.233 390.431 196.537 390.431 193.211C390.431 189.883 393.108 187.187 396.41 187.187C399.711 187.187 402.389 189.883 402.389 193.211Z" fill="#5E6AD2"/>
<path fill-rule="evenodd" clip-rule="evenodd" d="M27.4577 363.404C27.4577 366.73 24.7802 369.426 21.479 369.426C18.1764 369.426 15.5005 366.73 15.5005 363.404C15.5005 360.076 18.1764 357.38 21.479 357.38C24.7802 357.38 27.4577 360.076 27.4577 363.404Z" fill="#5E6AD2"/>
<path fill-rule="evenodd" clip-rule="evenodd" d="M60.55 238.25C60.55 241.576 57.874 244.272 54.5716 244.272C51.2702 244.272 48.5942 241.576 48.5942 238.25C48.5942 234.923 51.2702 232.226 54.5716 232.226C57.874 232.226 60.55 234.923 60.55 238.25Z" fill="#5E6AD2"/>
<path fill-rule="evenodd" clip-rule="evenodd" d="M135.84 404.754L75.585 344.04C72.7138 341.145 68.0597 341.145 65.1885 344.04L4.9336 404.754C0.302604 409.419 3.58197 417.398 10.1312 417.398H17.1801C21.2404 417.398 24.5321 420.714 24.5321 424.804V499.132C24.5321 503.223 27.8223 506.538 31.8826 506.538H108.891C112.951 506.538 116.241 503.223 116.241 499.132V424.804C116.241 420.714 119.533 417.398 123.593 417.398H130.642C137.191 417.398 140.471 409.419 135.84 404.754Z" fill="#FFDE6C"/>
<path fill-rule="evenodd" clip-rule="evenodd" d="M116.241 499.132V424.805C116.241 420.714 119.533 417.399 123.592 417.399H130.642C137.191 417.399 140.47 409.419 135.839 404.754L127.539 396.39C127.911 403.001 126.603 408.977 120.639 408.977C107.292 408.977 108.814 425.473 108.814 443.886C108.814 457.852 108.784 491.231 108.77 506.538H108.89C112.951 506.538 116.241 503.223 116.241 499.132Z" fill="#CC8900"/>
<path fill-rule="evenodd" clip-rule="evenodd" d="M34.3389 397.211C43.6335 388.604 68.7189 364.53 82.6378 351.145L75.585 344.04C72.7138 341.145 68.0597 341.145 65.1885 344.04L4.9336 404.754C0.302604 409.419 3.58197 417.398 10.1312 417.398H17.1801C21.2404 417.398 24.532 420.714 24.532 424.804V499.132C24.532 503.223 27.8223 506.538 31.8826 506.538H42.5127V417.269C42.5127 417.269 21.1858 409.392 34.3389 397.211Z" fill="#FFB110"/>
<path fill-rule="evenodd" clip-rule="evenodd" d="M135.84 404.754L137.209 403.375L76.9526 342.662C75.1438 340.836 72.7558 339.917 70.3857 339.92C68.0169 339.917 65.6291 340.836 63.82 342.662L3.56394 403.375C1.70172 405.244 0.822489 407.638 0.830622 409.938C0.833409 412.346 1.74677 414.67 3.37144 416.426C4.9893 418.185 7.37989 419.356 10.1309 419.348H17.1798C18.6816 419.348 20.0236 419.957 21.0094 420.945C21.9923 421.939 22.5958 423.291 22.5958 424.804V499.132C22.5972 504.3 26.753 508.488 31.8824 508.488H108.89C114.02 508.488 118.176 504.3 118.177 499.132V424.804C118.177 423.291 118.779 421.939 119.764 420.945C120.749 419.957 122.091 419.348 123.593 419.348H130.642C133.393 419.356 135.784 418.185 137.401 416.426C139.025 414.67 139.939 412.346 139.942 409.938C139.95 407.638 139.071 405.244 137.209 403.375L134.472 406.133C135.603 407.283 136.065 408.597 136.073 409.938C136.076 411.336 135.523 412.745 134.573 413.765C133.614 414.786 132.322 415.44 130.642 415.449H123.593C118.464 415.451 114.308 419.636 114.306 424.804V499.132C114.305 500.645 113.703 501.997 112.72 502.991C111.734 503.982 110.392 504.588 108.89 504.588H31.8824C30.3806 504.588 29.0384 503.982 28.0528 502.991C27.0699 501.997 26.4677 500.645 26.4663 499.132V424.804C26.465 419.636 22.3091 415.451 17.1798 415.449H10.1309C8.45024 415.44 7.15733 414.786 6.20029 413.765C5.25005 412.745 4.69712 411.336 4.69986 409.938C4.70805 408.597 5.16952 407.283 6.3013 406.133L66.5574 345.417C67.6198 344.35 68.9945 343.822 70.3857 343.82C71.7782 343.822 73.1531 344.35 74.2153 345.417L134.472 406.133L135.84 404.754Z" fill="#22215B"/>
</g>
</g>
<defs>
<clipPath id="clip0_2009_2">
<rect width="456" height="509" fill="white" transform="translate(0.330078 0.400391)"/>
</clipPath>
</defs>
</svg>
